<svg version="1.2" xmlns="http://www.w3.org/2000/svg" viewBox="0 0 708 708" width="708" height="708">
	<title>card</title>
	<defs>
		<clipPath clipPathUnits="userSpaceOnUse" id="cp1">
			<path d="m0 0h708v708h-708z"/>
		</clipPath>
	</defs>
	<style>
		.s0 { fill: #000000 } 
	</style>
	<g id="Page 1" clip-path="url(#cp1)">
		<path id="Path 4" class="s0" d="m164.1 241.1v28.3h453.6v-28.3c0-31.3-25.4-56.7-56.7-56.7h-340.2c-31.3 0-56.7 25.4-56.7 56.7zm0 70.8v156c0 31.2 25.4 56.7 56.7 56.7h340.2c31.3 0 56.7-25.5 56.7-56.7v-156zm56.7 134.7c0-11.8 9.5-21.3 21.2-21.3h42.6c11.7 0 21.2 9.5 21.2 21.3 0 11.8-9.5 21.3-21.2 21.3h-42.6c-11.7 0-21.2-9.5-21.2-21.3zm127.6 0c0-11.8 9.4-21.3 21.2-21.3h56.7c11.8 0 21.3 9.5 21.3 21.3 0 11.8-9.5 21.3-21.3 21.3h-56.7c-11.8 0-21.2-9.5-21.2-21.3z"/>
	</g>
</svg>