<svg version="1.2" xmlns="http://www.w3.org/2000/svg" viewBox="0 0 708 708" width="708" height="708">
	<title>cash</title>
	<defs>
		<clipPath clipPathUnits="userSpaceOnUse" id="cp1">
			<path d="m0 0h708v708h-708z"/>
		</clipPath>
	</defs>
	<style>
		.s0 { fill: #000000 } 
	</style>
	<g id="Page 1" clip-path="url(#cp1)">
		<path id="Path 4" class="s0" d="m220.8 184.4c-31.3 0-56.7 25.4-56.7 56.7v226.8c0 31.2 25.4 56.7 56.7 56.7h340.2c31.3 0 56.7-25.5 56.7-56.7v-226.8c0-31.3-25.4-56.7-56.7-56.7zm170.1 70.8c54.8 0 99.2 44.4 99.2 99.3 0 54.8-44.4 99.2-99.2 99.2-54.9 0-99.2-44.4-99.2-99.2 0-54.9 44.3-99.3 99.2-99.3zm-170.1 35.5v-42.6c0-3.9 3.2-7 7.1-7h42.5c3.9 0 7.2 3.1 6.6 7-3.2 25.7-23.5 46-49.1 49.2-3.9 0.5-7.1-2.7-7.1-6.6zm0 127.5c0-3.9 3.2-7.1 7.1-6.6 25.7 3.2 45.9 23.6 49.1 49.2 0.5 3.9-2.7 7.1-6.6 7.1h-42.5c-3.9 0-7.1-3.2-7.1-7.1zm333.1-121c-25.7-3.1-46-23.5-49.2-49.1-0.4-3.9 2.8-7.1 6.7-7.1h42.5c3.9 0 7.1 3.2 7.1 7.1v42.5c0 3.9-3.2 7.2-7.1 6.6zm7.1 121v42.5c0 3.9-3.2 7.1-7.1 7.1h-42.5c-3.9 0-7.2-3.2-6.7-7.1 3.2-25.7 23.6-46 49.2-49.2 3.9-0.4 7.1 2.8 7.1 6.7zm-184.3-124.1c-9.7 0-17.7 8-17.7 17.8 0 8.6 6.1 15.6 14.2 17.3v42.9h-3.6c-9.7 0-17.7 8-17.7 17.7 0 9.8 8 17.7 17.7 17.7h42.5c9.8 0 17.8-7.9 17.8-17.7 0-9.7-8-17.7-17.8-17.7h-3.5v-60.2c0-9.8-8-17.8-17.7-17.8z"/>
	</g>
</svg>