<svg version="1.2" xmlns="http://www.w3.org/2000/svg" viewBox="0 0 1559 708" width="1559" height="708">
	<title>Econt</title>
	<defs>
		<clipPath clipPathUnits="userSpaceOnUse" id="cp1">
			<path d="m0 0h1559v708h-1559z"/>
		</clipPath>
		<clipPath clipPathUnits="userSpaceOnUse" id="cp2">
			<path d="m878 354.16c-10.95 81.67-69.07 129.63-146.69 129.63-77.83 0-123.13-47.96-112.58-129.63 10.48-81.16 68.75-129.63 146.7-129.63 77.99 0 123.46 48.45 112.57 129.63zm-121.44-62.22c-35.6 0-59.94 22.03-65.23 62.22-5.29 40.19 13.22 62.22 48.85 62.22 35.05 0 59.94-22.03 65.23-62.22 5.29-40.19-13.63-62.22-48.85-62.22z"/>
		</clipPath>
		<clipPath clipPathUnits="userSpaceOnUse" id="cp3">
			<path d="m542.52 406.64c-9.98 6.44-22.05 9.74-35.7 9.74-35.62 0-54.14-22.03-48.85-62.22 5.29-40.19 29.64-62.22 65.24-62.22 13.97 0 25.38 3.47 33.73 10.17 5.6 4.62 13.12 7.39 21.68 7.39 20.05 0 38.29-15.09 40.74-33.7 1.37-10.45-2.41-19.85-9.6-26.04-0.02-0.01 0.03 0.02 0 0-18.95-16.39-45.45-25.23-77.67-25.23-77.95 0-136.22 48.47-146.7 129.63-10.55 81.67 34.74 129.63 112.56 129.63 30.36 0 57.98-8.19 80.61-22.99 10.12-6.11 17.54-16.17 19.03-27.56 2.45-18.62-11.81-33.71-31.86-33.71-8.4 0-16.48 2.66-23.21 7.11z"/>
		</clipPath>
		<clipPath clipPathUnits="userSpaceOnUse" id="cp4">
			<path d="m1117.92 224.53c-20.04 0-38.43 16.25-41.08 36.29l-12.05 91.55-73.92-113.18c-5.45-8.9-15.27-14.66-27.21-14.66-20.06 0-38.44 16.25-41.08 36.29l-24.58 186.68c-2.65 20.04 11.47 36.3 31.51 36.3 20.04 0 38.44-16.26 41.08-36.3l11.8-89.55 75.05 112.51q0.05 0.07 0.1 0.15l0.01 0.01c5.6 8.05 14.99 13.18 26.25 13.18 20.06 0 38.44-16.26 41.09-36.3l24.55-186.68c2.64-20.04-11.47-36.29-31.52-36.29z"/>
		</clipPath>
		<clipPath clipPathUnits="userSpaceOnUse" id="cp5">
			<path d="m1371.64 227.12h-165.93c-18.62 0-35.69 15.09-38.14 33.7-2.45 18.62 10.65 33.71 29.26 33.71h46.66l-20.17 152.97c-2.64 20.04 11.48 36.3 31.52 36.3 20.04 0 38.43-16.26 41.08-36.3l20.18-152.97h46.67c18.62 0 35.69-15.09 38.14-33.71 2.45-18.61-10.66-33.7-29.27-33.7z"/>
		</clipPath>
	</defs>
	<style>
		.s0 { fill: #234182 } 
	</style>
	<g id="Page 1" clip-path="url(#cp1)">
		<path id="Path 3" class="s0" d="m353.7 227.1h-124.4c-20.1 0-38.5 16.3-41.1 36.3l-24.1 181.5c-2.7 20 11.5 36.3 31.5 36.3h124.5c18.6 0 35.6-15.1 38.1-33.7 2.4-18.6-10.7-33.7-29.3-33.7h-88.1l15.9-119.3h88.2c18.6 0 35.6-15.1 38.1-33.7 2.4-18.6-10.7-33.7-29.3-33.7z"/>
		<path id="Path 4" class="s0" d="m308.9 314c-22.2 0-40.2 18-40.2 40.2 0 22.2 18 40.1 40.2 40.1 22.2 0 40.2-17.9 40.2-40.1 0-22.2-18-40.2-40.2-40.2z"/>
		<g id="Mask" clip-path="url(#cp2)">
			<path id="Path 6" class="s0" d="m157.3 218h728.4v272.3h-728.4z"/>
		</g>
		<g id="Mask" clip-path="url(#cp3)">
			<path id="Path 9" class="s0" d="m157.3 218h728.4v272.3h-728.4z"/>
		</g>
		<g id="Mask" clip-path="url(#cp4)">
			<path id="Path 12" class="s0" d="m897.7 224.5h252.1v259h-252.1z"/>
		</g>
		<g id="Mask" clip-path="url(#cp5)">
			<path id="Path 15" class="s0" d="m1167.3 227.1h233.9v256.8h-233.9z"/>
		</g>
	</g>
</svg>