<svg xmlns="http://www.w3.org/2000/svg" xmlns:xlink="http://www.w3.org/1999/xlink" width="1080" zoomAndPan="magnify" viewBox="0 0 810 809.999993" height="1080" preserveAspectRatio="xMidYMid meet" version="1.2"><defs><clipPath id="696eb897ad"><path d="M 12 2.210938 L 665 2.210938 L 665 505 L 12 505 Z M 12 2.210938 "/></clipPath><clipPath id="27fc584416"><path d="M 0.515625 19 L 809.433594 19 L 809.433594 807.710938 L 0.515625 807.710938 Z M 0.515625 19 "/></clipPath></defs><g id="6aac5a9445"><path style=" stroke:none;fill-rule:nonzero;fill:#ffffff;fill-opacity:1;" d="M 660.773438 192.578125 L 660.757812 192.304688 C 660.703125 191.578125 660.621094 190.859375 660.519531 190.140625 L 660.417969 189.542969 C 660.324219 188.980469 660.222656 188.417969 660.101562 187.871094 C 660.007812 187.441406 659.914062 187.011719 659.804688 186.585938 C 657.59375 178.136719 651.929688 170.761719 643.429688 165.246094 L 419.621094 20.03125 C 409.816406 13.671875 397.28125 10.3125 383.363281 10.3125 C 363.199219 10.3125 342.722656 17.628906 328.59375 29.886719 L 42.804688 277.839844 C 28.738281 290.050781 22.496094 305.714844 26.109375 319.757812 L 26.238281 320.25 C 26.394531 320.820312 26.558594 321.386719 26.753906 321.976562 L 26.855469 322.253906 C 27.039062 322.777344 27.234375 323.296875 27.457031 323.835938 L 27.691406 324.378906 C 27.859375 324.78125 28.042969 325.1875 28.238281 325.589844 L 28.511719 326.160156 C 28.734375 326.601562 28.964844 327.03125 29.207031 327.460938 L 29.441406 327.886719 C 29.761719 328.441406 30.105469 328.996094 30.519531 329.628906 L 30.722656 329.921875 C 31.015625 330.351562 31.316406 330.78125 31.621094 331.195312 L 32.042969 331.746094 C 32.335938 332.121094 32.636719 332.492188 32.941406 332.859375 L 33.382812 333.382812 C 33.757812 333.820312 34.15625 334.25 34.535156 334.648438 L 34.8125 334.949219 C 35.3125 335.460938 35.828125 335.96875 36.367188 336.460938 L 36.839844 336.882812 C 37.238281 337.246094 37.648438 337.605469 38.074219 337.953125 L 38.679688 338.453125 C 39.097656 338.785156 39.53125 339.121094 39.960938 339.4375 L 40.554688 339.886719 C 41.199219 340.347656 41.859375 340.808594 42.539062 341.25 L 266.421875 486.503906 C 267.375 487.125 268.4375 487.75 269.726562 488.453125 L 270.503906 488.875 C 271.65625 489.476562 272.824219 490.042969 274 490.554688 L 274.730469 490.867188 C 275.957031 491.378906 277.101562 491.824219 278.203125 492.210938 L 278.65625 492.375 C 279.820312 492.773438 281.097656 493.164062 282.585938 493.570312 L 283.597656 493.835938 L 284.1875 493.96875 C 285.285156 494.238281 286.386719 494.511719 287.546875 494.738281 L 288.242188 494.867188 C 289.480469 495.09375 290.777344 495.300781 292.066406 495.472656 L 292.769531 495.574219 C 293.148438 495.617188 293.53125 495.648438 293.910156 495.675781 L 295.613281 495.832031 C 296.085938 495.882812 296.566406 495.933594 297.019531 495.964844 L 298.039062 496.027344 C 299.625 496.117188 301.054688 496.15625 302.398438 496.160156 L 303.433594 496.140625 C 304.21875 496.136719 305.003906 496.125 305.792969 496.089844 C 306.164062 496.078125 307.144531 496.023438 307.144531 496.023438 C 307.847656 495.992188 308.542969 495.941406 309.253906 495.890625 C 309.722656 495.851562 310.191406 495.808594 310.644531 495.761719 C 311.347656 495.699219 312.042969 495.625 312.761719 495.535156 C 313.21875 495.484375 313.667969 495.433594 314.132812 495.371094 C 314.875 495.269531 315.621094 495.15625 316.378906 495.03125 L 317.570312 494.847656 C 318.683594 494.652344 319.796875 494.4375 321.015625 494.175781 L 321.363281 494.09375 C 322.367188 493.875 323.367188 493.640625 324.359375 493.386719 L 325.546875 493.0625 C 326.273438 492.867188 327 492.667969 327.726562 492.453125 C 328.171875 492.320312 328.613281 492.179688 329.054688 492.039062 C 329.742188 491.824219 330.425781 491.597656 331.101562 491.371094 C 331.542969 491.21875 331.988281 491.066406 332.410156 490.914062 C 333.105469 490.664062 333.800781 490.398438 334.46875 490.136719 L 335.695312 489.660156 C 336.492188 489.335938 337.277344 488.996094 338.039062 488.660156 L 338.886719 488.292969 C 339.929688 487.8125 340.972656 487.3125 341.992188 486.800781 L 342.820312 486.367188 C 343.5625 485.972656 344.308594 485.574219 345.035156 485.171875 L 346.136719 484.53125 C 346.769531 484.160156 347.398438 483.789062 348.011719 483.410156 C 348.390625 483.175781 348.773438 482.933594 349.136719 482.699219 C 349.738281 482.308594 350.339844 481.910156 350.984375 481.460938 C 351.324219 481.226562 351.664062 480.996094 352 480.753906 C 352.625 480.3125 353.238281 479.851562 353.851562 479.382812 L 354.730469 478.71875 C 355.617188 478.023438 356.488281 477.308594 357.335938 476.578125 L 643.140625 228.613281 C 643.992188 227.871094 644.816406 227.113281 645.597656 226.355469 L 646.34375 225.617188 C 646.882812 225.085938 647.398438 224.554688 647.898438 224.023438 C 648.171875 223.738281 648.429688 223.457031 648.6875 223.164062 C 649.15625 222.644531 649.605469 222.128906 650.042969 221.609375 C 650.042969 221.609375 650.558594 220.996094 650.75 220.757812 C 651.210938 220.1875 651.652344 219.613281 652.089844 219.019531 L 652.589844 218.363281 C 653.164062 217.558594 653.714844 216.757812 654.242188 215.914062 L 654.472656 215.535156 C 654.886719 214.859375 655.292969 214.183594 655.671875 213.507812 L 656.101562 212.691406 C 656.394531 212.144531 656.675781 211.59375 656.949219 211.03125 C 657.085938 210.742188 657.21875 210.449219 657.351562 210.160156 C 657.601562 209.617188 657.832031 209.066406 658.054688 208.507812 L 658.382812 207.695312 C 658.628906 207.042969 658.851562 206.398438 659.054688 205.765625 L 659.222656 205.253906 C 659.476562 204.445312 659.691406 203.636719 659.90625 202.703125 L 660 202.257812 C 660.140625 201.640625 660.261719 201.019531 660.359375 200.40625 L 660.480469 199.605469 C 660.558594 199.0625 660.625 198.523438 660.675781 197.992188 C 660.703125 197.714844 660.726562 197.4375 660.746094 197.164062 C 660.785156 196.609375 660.808594 196.054688 660.824219 195.511719 L 660.839844 194.796875 C 660.839844 194.050781 660.824219 193.3125 660.773438 192.578125 "/><g clip-rule="nonzero" clip-path="url(#696eb897ad)"><path style=" stroke:none;fill-rule:nonzero;fill:#000000;fill-opacity:1;" d="M 637.863281 186.238281 C 637.863281 186.238281 596.441406 191.921875 577.4375 194 C 530.535156 199.136719 504.824219 218.90625 486.851562 263.089844 C 474.945312 292.363281 462.859375 318.316406 429.328125 325.199219 C 411.0625 328.953125 392.792969 324.636719 374.523438 323.953125 C 348.789062 322.988281 323.019531 323.234375 297.28125 322.273438 C 278.71875 321.585938 260.246094 320.503906 241.808594 319.226562 L 207.0625 316.617188 C 195.617188 315.714844 184.167969 314.785156 172.710938 313.855469 C 172.710938 313.855469 61.441406 306.164062 62.730469 309.203125 C 55.484375 309.945312 48.375 311.101562 41.503906 312.8125 C 40.039062 313.171875 37.144531 313.980469 37.144531 313.980469 C 37.144531 313.980469 33.605469 293.355469 44.441406 283.953125 L 227.886719 128.648438 L 330.886719 37.113281 C 338.355469 30.632812 356.507812 24.882812 367.015625 22.417969 C 367.015625 22.417969 382.734375 15.5 412.511719 31.714844 L 630.761719 171.660156 C 639.925781 177.59375 637.863281 186.238281 637.863281 186.238281 Z M 664.53125 192.046875 C 664.527344 191.996094 664.527344 191.945312 664.527344 191.902344 C 664.457031 190.929688 664.347656 189.960938 664.210938 189 C 664.179688 188.75 664.128906 188.496094 664.089844 188.25 C 663.976562 187.542969 663.84375 186.847656 663.691406 186.144531 C 663.578125 185.609375 663.453125 185.070312 663.3125 184.539062 C 660.691406 174.492188 654.09375 165.316406 643.519531 158.453125 L 451.875 34.109375 L 438.863281 25.667969 L 419.707031 13.238281 C 408.25 5.804688 393.898438 2.214844 379.046875 2.214844 C 357.667969 2.222656 335.253906 9.660156 318.980469 23.777344 L 33.195312 271.730469 C 16.117188 286.542969 9.730469 305.3125 13.964844 321.761719 C 14.015625 321.976562 14.066406 322.183594 14.121094 322.398438 C 14.332031 323.152344 14.558594 323.902344 14.8125 324.648438 C 14.84375 324.730469 14.875 324.8125 14.90625 324.894531 C 15.132812 325.558594 15.378906 326.214844 15.644531 326.867188 C 15.738281 327.09375 15.839844 327.324219 15.9375 327.550781 C 16.15625 328.0625 16.390625 328.574219 16.628906 329.078125 C 16.746094 329.320312 16.859375 329.558594 16.976562 329.800781 C 17.25 330.335938 17.539062 330.875 17.835938 331.40625 C 17.933594 331.582031 18.027344 331.757812 18.128906 331.929688 C 18.527344 332.625 18.949219 333.3125 19.398438 333.996094 C 19.5 334.148438 19.605469 334.300781 19.714844 334.449219 C 20.074219 334.976562 20.441406 335.5 20.828125 336.019531 C 20.992188 336.238281 21.160156 336.460938 21.332031 336.683594 C 21.6875 337.136719 22.054688 337.59375 22.425781 338.039062 C 22.601562 338.253906 22.78125 338.46875 22.960938 338.679688 C 23.425781 339.203125 23.890625 339.726562 24.382812 340.238281 C 24.492188 340.347656 24.585938 340.46875 24.695312 340.574219 C 25.292969 341.1875 25.914062 341.792969 26.550781 342.386719 C 26.742188 342.558594 26.929688 342.722656 27.113281 342.886719 C 27.59375 343.316406 28.082031 343.742188 28.582031 344.15625 C 28.816406 344.355469 29.0625 344.550781 29.300781 344.746094 C 29.792969 345.144531 30.304688 345.535156 30.824219 345.921875 C 31.050781 346.089844 31.28125 346.269531 31.511719 346.433594 C 32.265625 346.976562 33.03125 347.507812 33.824219 348.023438 L 257.636719 493.242188 C 257.664062 493.253906 257.695312 493.273438 257.714844 493.285156 C 258.964844 494.09375 260.261719 494.839844 261.570312 495.5625 C 261.859375 495.71875 262.144531 495.875 262.433594 496.027344 C 263.734375 496.710938 265.070312 497.355469 266.429688 497.949219 C 266.707031 498.074219 266.992188 498.183594 267.273438 498.304688 C 268.578125 498.859375 269.898438 499.371094 271.242188 499.84375 C 271.40625 499.902344 271.558594 499.964844 271.722656 500.023438 C 273.164062 500.515625 274.636719 500.957031 276.128906 501.363281 C 276.46875 501.457031 276.8125 501.550781 277.160156 501.640625 C 277.410156 501.703125 277.675781 501.753906 277.929688 501.816406 C 279.164062 502.121094 280.386719 502.417969 281.644531 502.664062 C 281.910156 502.714844 282.183594 502.757812 282.453125 502.808594 C 283.859375 503.066406 285.28125 503.296875 286.714844 503.484375 C 286.972656 503.515625 287.226562 503.554688 287.484375 503.585938 C 288.238281 503.679688 289 503.730469 289.761719 503.800781 C 290.570312 503.878906 291.371094 503.972656 292.179688 504.027344 C 292.546875 504.046875 292.914062 504.074219 293.285156 504.09375 C 294.878906 504.179688 296.476562 504.238281 298.082031 504.238281 C 298.460938 504.238281 298.835938 504.226562 299.214844 504.226562 C 300.074219 504.210938 300.933594 504.199219 301.792969 504.167969 C 302.277344 504.148438 302.773438 504.117188 303.265625 504.09375 C 304.03125 504.046875 304.800781 504.003906 305.566406 503.941406 C 306.078125 503.902344 306.59375 503.859375 307.105469 503.808594 C 307.867188 503.738281 308.625 503.65625 309.386719 503.5625 C 309.886719 503.503906 310.386719 503.449219 310.890625 503.378906 C 311.707031 503.269531 312.523438 503.144531 313.339844 503.011719 C 313.773438 502.941406 314.210938 502.878906 314.652344 502.804688 C 315.867188 502.59375 317.078125 502.359375 318.292969 502.101562 C 318.457031 502.0625 318.621094 502.027344 318.785156 501.988281 C 319.878906 501.746094 320.960938 501.496094 322.039062 501.214844 C 322.476562 501.109375 322.90625 500.984375 323.34375 500.867188 C 324.136719 500.652344 324.933594 500.433594 325.730469 500.191406 C 326.210938 500.054688 326.691406 499.902344 327.171875 499.75 C 327.921875 499.515625 328.664062 499.269531 329.410156 499.015625 C 329.890625 498.851562 330.363281 498.6875 330.84375 498.519531 C 331.601562 498.246094 332.351562 497.957031 333.097656 497.664062 C 333.542969 497.496094 333.988281 497.332031 334.425781 497.148438 C 335.292969 496.800781 336.15625 496.425781 337.011719 496.046875 C 337.320312 495.910156 337.628906 495.78125 337.933594 495.648438 C 339.078125 495.125 340.214844 494.582031 341.339844 494.011719 C 341.644531 493.855469 341.941406 493.691406 342.242188 493.53125 C 343.066406 493.101562 343.878906 492.667969 344.6875 492.21875 C 345.09375 491.984375 345.496094 491.75 345.902344 491.511719 C 346.597656 491.105469 347.292969 490.695312 347.976562 490.269531 C 348.390625 490.003906 348.808594 489.742188 349.226562 489.476562 C 349.890625 489.046875 350.546875 488.601562 351.199219 488.160156 C 351.597656 487.890625 351.996094 487.609375 352.386719 487.332031 C 353.082031 486.839844 353.765625 486.328125 354.441406 485.816406 C 354.761719 485.5625 355.097656 485.324219 355.417969 485.070312 C 356.40625 484.292969 357.378906 483.496094 358.328125 482.675781 L 583.09375 287.667969 L 644.113281 234.730469 C 644.121094 234.722656 644.125 234.714844 644.132812 234.714844 C 645.085938 233.882812 646.003906 233.035156 646.894531 232.183594 C 647.183594 231.90625 647.449219 231.625 647.734375 231.347656 C 648.335938 230.753906 648.921875 230.152344 649.492188 229.546875 C 649.796875 229.21875 650.09375 228.894531 650.382812 228.566406 C 650.914062 227.984375 651.425781 227.390625 651.925781 226.796875 C 652.195312 226.476562 652.46875 226.152344 652.734375 225.832031 C 653.265625 225.175781 653.769531 224.511719 654.261719 223.839844 C 654.457031 223.585938 654.660156 223.328125 654.84375 223.070312 C 655.507812 222.148438 656.144531 221.210938 656.746094 220.269531 C 656.839844 220.117188 656.929688 219.960938 657.023438 219.800781 C 657.515625 219.011719 657.984375 218.222656 658.425781 217.425781 C 658.605469 217.109375 658.769531 216.789062 658.9375 216.464844 C 659.28125 215.820312 659.617188 215.175781 659.925781 214.519531 C 660.089844 214.179688 660.253906 213.832031 660.410156 213.484375 C 660.703125 212.832031 660.980469 212.175781 661.246094 211.523438 C 661.371094 211.195312 661.511719 210.871094 661.636719 210.542969 C 661.929688 209.765625 662.199219 208.988281 662.445312 208.210938 C 662.511719 208.015625 662.585938 207.820312 662.644531 207.617188 C 662.945312 206.640625 663.210938 205.660156 663.445312 204.671875 C 663.496094 204.445312 663.535156 204.21875 663.585938 203.992188 C 663.753906 203.238281 663.90625 202.480469 664.03125 201.722656 C 664.082031 201.398438 664.128906 201.070312 664.179688 200.742188 C 664.273438 200.078125 664.355469 199.410156 664.417969 198.746094 C 664.449219 198.40625 664.480469 198.070312 664.507812 197.726562 C 664.550781 197.046875 664.582031 196.355469 664.59375 195.675781 C 664.601562 195.382812 664.621094 195.085938 664.621094 194.789062 C 664.613281 193.875 664.589844 192.957031 664.53125 192.046875 "/></g><g clip-rule="nonzero" clip-path="url(#27fc584416)"><path style=" stroke:none;fill-rule:nonzero;fill:#ffffff;fill-opacity:1;" d="M 790.0625 299.378906 C 788.792969 313.382812 785.898438 328.644531 781.277344 345.097656 C 771.730469 379.117188 755.648438 415.207031 734.765625 451.4375 C 713.988281 487.484375 688.335938 523.867188 659.445312 558.660156 C 641.59375 580.160156 622.4375 601.121094 602.359375 621.097656 C 578.503906 636.605469 555.855469 641.148438 535.363281 645.257812 C 520.074219 648.320312 505.640625 651.210938 493.519531 658.394531 C 462.21875 676.777344 422.152344 692.519531 419.039062 693.570312 C 418.878906 693.609375 418.722656 693.652344 418.570312 693.707031 C 388.191406 705.28125 355.714844 703.535156 331.695312 689.046875 C 316.578125 679.925781 306.929688 666.65625 305.222656 652.644531 L 304.8125 650.140625 C 300.324219 614.746094 327.777344 574.84375 367.332031 559.414062 L 367.238281 559.179688 C 376.9375 556.785156 410.148438 540.6875 422.683594 533.320312 C 435.785156 525.570312 442.015625 511.132812 448.613281 495.851562 C 454.28125 482.71875 450.566406 457.953125 460.097656 443.476562 L 653.453125 275.71875 C 670.164062 261.21875 676.652344 242.933594 672.960938 226.742188 L 666.144531 196.84375 C 690.726562 194.5 747.035156 195.105469 783.964844 241.863281 C 786.195312 247.753906 787.902344 254.125 789.046875 260.972656 C 790.964844 272.464844 791.339844 285.285156 790.0625 299.378906 Z M 578.839844 643.625 C 574.328125 647.796875 569.789062 651.910156 565.207031 655.960938 C 564.824219 656.304688 564.445312 656.65625 564.058594 656.992188 C 529.6875 687.269531 493.265625 714.328125 456.378906 736.113281 C 451.558594 738.964844 446.792969 741.65625 442.066406 744.265625 C 439.558594 745.644531 437.066406 746.988281 434.585938 748.304688 C 419.359375 756.359375 404.675781 763.160156 390.636719 768.652344 C 369.828125 776.785156 350.402344 782.132812 332.65625 784.734375 C 332.1875 784.804688 331.734375 784.847656 331.273438 784.917969 C 329.574219 785.152344 327.886719 785.378906 326.21875 785.570312 C 325.382812 785.664062 324.566406 785.722656 323.734375 785.804688 C 322.449219 785.929688 321.160156 786.0625 319.902344 786.15625 C 319.011719 786.21875 318.148438 786.257812 317.269531 786.308594 C 316.085938 786.378906 314.898438 786.453125 313.734375 786.5 C 312.839844 786.53125 311.964844 786.535156 311.082031 786.546875 C 309.976562 786.574219 308.871094 786.597656 307.78125 786.59375 C 306.558594 786.585938 305.355469 786.546875 304.148438 786.511719 C 303.316406 786.484375 302.476562 786.472656 301.648438 786.429688 C 300.375 786.367188 299.132812 786.265625 297.886719 786.167969 C 297.160156 786.113281 296.421875 786.070312 295.699219 786 C 294.308594 785.867188 292.945312 785.683594 291.578125 785.507812 C 291.035156 785.429688 290.480469 785.378906 289.9375 785.296875 C 288.046875 785.011719 286.183594 784.691406 284.363281 784.316406 C 281.773438 783.792969 279.277344 783.144531 276.824219 782.429688 C 244.507812 760.304688 232.335938 711.636719 232.335938 667.765625 C 232.335938 655.976562 235.171875 642.148438 239.53125 627.871094 C 246.292969 625.117188 253.15625 622.128906 260.140625 618.835938 C 268.570312 614.859375 277.160156 610.492188 285.890625 605.734375 C 297.375 599.480469 308.789062 592.683594 320.082031 585.457031 C 303.945312 604.820312 295.199219 628.738281 298.039062 651.117188 L 298.449219 653.605469 C 300.390625 669.59375 311.226562 684.699219 328.164062 694.910156 C 353.964844 710.480469 388.679688 712.425781 421.003906 700.109375 L 420.921875 699.890625 C 431.128906 697.164062 472.949219 678.421875 496.996094 664.296875 C 508.125 657.699219 521.371094 655.046875 536.699219 651.976562 C 550.988281 649.113281 567.230469 645.851562 584.386719 638.433594 C 582.542969 640.171875 580.699219 641.90625 578.839844 643.625 Z M 218.773438 752.820312 C 218.804688 752.917969 218.835938 753.011719 218.875 753.105469 C 218.835938 753.003906 218.796875 752.910156 218.761719 752.808594 C 187.183594 726.84375 151.449219 695.296875 151.449219 695.296875 L 151.476562 695.257812 L 41.433594 600.519531 C 39.949219 599.238281 38.496094 597.886719 37.125 596.503906 C 35.621094 594.984375 34.097656 593.265625 32.316406 591.09375 C 29.902344 588.140625 27.859375 585.273438 26.066406 582.328125 C 21.691406 575.140625 18.261719 566.953125 15.851562 557.976562 C 14.609375 553.332031 13.621094 548.390625 12.914062 543.296875 C 12.554688 540.707031 12.265625 538.027344 12.042969 535.335938 C 11.828125 532.613281 11.675781 529.792969 11.601562 526.960938 C 11.519531 524.082031 11.519531 521.109375 11.585938 518.121094 C 11.726562 512.0625 12.183594 505.695312 12.933594 499.21875 C 13.320312 495.933594 13.785156 492.546875 14.324219 489.160156 C 15.757812 480.148438 17.753906 470.742188 20.257812 461.21875 C 21.503906 456.492188 22.898438 451.640625 24.402344 446.804688 C 29.972656 428.890625 37.371094 410.171875 46.375 391.097656 L 266.984375 534.230469 C 267.066406 534.285156 267.148438 534.332031 267.230469 534.382812 C 252.589844 560.878906 219.808594 624.972656 219.808594 667.765625 C 219.808594 709.53125 230.40625 755.34375 257.605469 782.648438 C 248.828125 777.007812 234.304688 765.585938 218.773438 752.820312 Z M 233.148438 778.769531 C 233.105469 778.71875 233.066406 778.667969 233.03125 778.617188 C 233.136719 778.746094 233.246094 778.871094 233.351562 779.003906 C 233.289062 778.921875 233.21875 778.851562 233.148438 778.769531 Z M 227.171875 770.574219 C 227.171875 770.566406 227.164062 770.558594 227.164062 770.558594 C 227.152344 770.542969 227.144531 770.523438 227.132812 770.511719 C 227.773438 771.527344 228.441406 772.519531 229.125 773.503906 C 228.453125 772.542969 227.804688 771.570312 227.171875 770.574219 Z M 225.667969 768.0625 C 225.574219 767.90625 225.476562 767.753906 225.382812 767.597656 C 224.289062 765.667969 223.257812 763.679688 222.300781 761.617188 C 222.292969 761.605469 222.285156 761.597656 222.285156 761.59375 C 222.089844 761.167969 221.921875 760.726562 221.730469 760.304688 C 222.039062 761.003906 222.351562 761.714844 222.679688 762.394531 C 222.835938 762.722656 222.996094 763.039062 223.152344 763.363281 C 223.613281 764.292969 224.085938 765.203125 224.574219 766.097656 C 224.738281 766.402344 224.902344 766.71875 225.074219 767.023438 C 225.636719 768.019531 226.21875 769.003906 226.8125 769.964844 C 226.417969 769.339844 226.039062 768.707031 225.667969 768.0625 Z M 220.480469 757.410156 C 220.328125 757.035156 220.183594 756.671875 220.035156 756.296875 C 219.953125 756.089844 219.886719 755.867188 219.804688 755.660156 C 220.082031 756.375 220.351562 757.085938 220.644531 757.78125 C 220.585938 757.65625 220.53125 757.535156 220.480469 757.410156 Z M 785 223.992188 C 785 223.992188 784.980469 223.980469 784.949219 223.953125 C 784.9375 223.949219 784.929688 223.933594 784.917969 223.921875 C 784.949219 223.949219 785 223.992188 785 223.992188 Z M 807.1875 253.0625 C 802.828125 229.484375 792.148438 211.351562 775.894531 199.363281 C 775.875 199.351562 775.855469 199.339844 775.835938 199.328125 L 558.882812 39.242188 C 554.035156 35.664062 548.757812 32.542969 543.078125 29.894531 C 542.445312 29.605469 541.792969 29.339844 541.148438 29.054688 C 536.023438 26.796875 530.589844 24.894531 524.839844 23.40625 C 524.832031 23.40625 524.820312 23.40625 524.8125 23.40625 C 524.777344 23.390625 524.738281 23.386719 524.699219 23.378906 C 521.738281 22.613281 518.671875 21.976562 515.542969 21.414062 C 514.539062 21.238281 513.503906 21.109375 512.476562 20.953125 C 510.246094 20.605469 507.992188 20.300781 505.683594 20.0625 C 504.476562 19.933594 503.246094 19.835938 502.011719 19.738281 C 499.761719 19.5625 497.476562 19.4375 495.15625 19.359375 C 493.917969 19.316406 492.6875 19.265625 491.429688 19.253906 C 490.796875 19.246094 490.191406 19.203125 489.550781 19.203125 C 488.96875 19.203125 488.382812 19.214844 487.792969 19.222656 C 487.351562 19.226562 486.910156 19.234375 486.46875 19.238281 C 484.691406 19.273438 482.902344 19.316406 481.097656 19.40625 C 478.898438 19.503906 476.671875 19.65625 474.421875 19.847656 C 474.421875 19.847656 474.417969 19.847656 474.417969 19.847656 C 474.351562 19.847656 474.289062 19.859375 474.226562 19.859375 C 472.3125 20.023438 470.371094 20.207031 468.417969 20.421875 C 466.390625 20.644531 464.347656 20.894531 462.28125 21.1875 C 460.324219 21.457031 458.339844 21.773438 456.347656 22.101562 C 455.8125 22.191406 455.269531 22.285156 454.730469 22.382812 C 453.207031 22.644531 451.679688 22.925781 450.136719 23.222656 C 449.574219 23.335938 449.011719 23.4375 448.441406 23.550781 C 446.40625 23.960938 444.367188 24.382812 442.300781 24.84375 C 441.167969 25.105469 440.007812 25.390625 438.863281 25.667969 L 451.875 34.109375 C 455.917969 33.328125 459.914062 32.644531 463.804688 32.101562 C 467.597656 31.570312 471.472656 31.140625 475.308594 30.824219 C 477.4375 30.652344 479.535156 30.507812 481.613281 30.414062 C 484.28125 30.28125 486.953125 30.21875 489.550781 30.21875 C 489.746094 30.21875 489.9375 30.230469 490.132812 30.234375 C 490.519531 30.25 490.910156 30.269531 491.308594 30.269531 C 492.261719 30.28125 493.199219 30.3125 494.140625 30.34375 L 494.785156 30.367188 C 497.007812 30.445312 499.152344 30.566406 501.160156 30.714844 C 502.296875 30.8125 503.433594 30.898438 504.554688 31.019531 C 506.460938 31.214844 508.511719 31.480469 510.804688 31.835938 L 512 32.011719 C 512.542969 32.085938 513.085938 32.164062 513.617188 32.257812 C 516.789062 32.828125 519.550781 33.414062 522.058594 34.066406 L 522.363281 34.140625 C 528.035156 35.632812 533.445312 37.558594 538.425781 39.878906 C 543.414062 42.207031 548.09375 44.972656 552.347656 48.109375 L 705.9375 161.429688 C 706.316406 161.675781 706.707031 161.898438 707.082031 162.164062 C 711.929688 165.582031 717.8125 169.984375 724.132812 174.859375 L 728.941406 178.402344 C 728.871094 178.410156 728.800781 178.417969 728.730469 178.421875 C 740.429688 187.535156 753.113281 197.777344 763.484375 206.246094 C 726.292969 181.9375 684.023438 182.398438 663.765625 184.496094 C 663.609375 184.507812 663.464844 184.527344 663.3125 184.539062 C 663.453125 185.078125 663.578125 185.609375 663.691406 186.152344 C 663.84375 186.847656 663.96875 187.546875 664.082031 188.25 C 664.128906 188.503906 664.179688 188.75 664.210938 189 C 664.347656 189.960938 664.457031 190.929688 664.527344 191.902344 C 664.527344 191.953125 664.527344 191.996094 664.527344 192.046875 C 664.589844 192.957031 664.613281 193.878906 664.613281 194.796875 C 664.613281 195.09375 664.59375 195.382812 664.589844 195.679688 C 664.578125 196.363281 664.542969 197.046875 664.5 197.734375 C 664.476562 198.074219 664.445312 198.410156 664.414062 198.753906 C 664.347656 199.414062 664.265625 200.078125 664.171875 200.75 C 664.121094 201.078125 664.078125 201.398438 664.027344 201.730469 C 663.898438 202.488281 663.75 203.238281 663.578125 203.996094 C 663.527344 204.226562 663.488281 204.453125 663.4375 204.679688 C 663.207031 205.660156 662.941406 206.644531 662.636719 207.625 C 662.578125 207.820312 662.503906 208.023438 662.441406 208.21875 C 662.1875 208.996094 661.921875 209.773438 661.632812 210.550781 C 661.503906 210.878906 661.367188 211.203125 661.238281 211.53125 C 660.972656 212.179688 660.695312 212.832031 660.40625 213.484375 C 660.246094 213.832031 660.082031 214.179688 659.917969 214.527344 C 659.609375 215.175781 659.273438 215.828125 658.933594 216.472656 C 658.761719 216.792969 658.597656 217.117188 658.421875 217.433594 C 657.980469 218.230469 657.511719 219.019531 657.019531 219.808594 C 656.921875 219.960938 656.835938 220.117188 656.742188 220.277344 C 656.140625 221.21875 655.5 222.148438 654.839844 223.074219 C 654.65625 223.335938 654.453125 223.585938 654.257812 223.847656 C 653.765625 224.515625 653.257812 225.179688 652.726562 225.835938 C 652.460938 226.160156 652.191406 226.480469 651.917969 226.804688 C 651.417969 227.398438 650.90625 227.984375 650.375 228.574219 C 650.085938 228.902344 649.789062 229.226562 649.484375 229.546875 C 648.917969 230.152344 648.328125 230.753906 647.730469 231.355469 C 647.445312 231.632812 647.179688 231.910156 646.886719 232.183594 C 645.996094 233.042969 645.082031 233.890625 644.121094 234.722656 C 644.113281 234.722656 644.113281 234.730469 644.109375 234.734375 L 583.085938 287.675781 L 358.320312 482.679688 C 357.371094 483.503906 356.398438 484.300781 355.414062 485.078125 C 355.089844 485.328125 354.757812 485.570312 354.433594 485.824219 C 353.757812 486.335938 353.074219 486.847656 352.378906 487.339844 C 351.988281 487.617188 351.589844 487.890625 351.191406 488.160156 C 350.539062 488.609375 349.882812 489.050781 349.214844 489.480469 C 348.804688 489.746094 348.386719 490.011719 347.96875 490.269531 C 347.285156 490.699219 346.589844 491.113281 345.894531 491.515625 C 345.492188 491.75 345.085938 491.988281 344.683594 492.21875 C 343.875 492.671875 343.058594 493.109375 342.238281 493.53125 C 341.933594 493.695312 341.636719 493.859375 341.328125 494.011719 C 340.207031 494.582031 339.070312 495.132812 337.925781 495.648438 C 337.625 495.789062 337.3125 495.914062 337.003906 496.054688 C 336.152344 496.425781 335.285156 496.800781 334.421875 497.152344 C 333.976562 497.332031 333.535156 497.5 333.09375 497.671875 C 332.347656 497.960938 331.59375 498.246094 330.835938 498.519531 C 330.355469 498.695312 329.882812 498.859375 329.394531 499.023438 C 328.65625 499.277344 327.910156 499.515625 327.164062 499.757812 C 326.683594 499.910156 326.203125 500.054688 325.722656 500.199219 C 324.929688 500.4375 324.132812 500.652344 323.335938 500.867188 C 322.898438 500.988281 322.46875 501.117188 322.035156 501.222656 C 320.953125 501.5 319.871094 501.753906 318.777344 501.992188 C 318.613281 502.03125 318.449219 502.070312 318.285156 502.109375 C 317.074219 502.367188 315.859375 502.59375 314.644531 502.808594 C 314.203125 502.886719 313.769531 502.949219 313.332031 503.019531 C 312.515625 503.148438 311.703125 503.277344 310.886719 503.382812 C 310.378906 503.449219 309.882812 503.511719 309.375 503.566406 C 308.617188 503.664062 307.859375 503.738281 307.101562 503.8125 C 306.589844 503.863281 306.070312 503.910156 305.558594 503.945312 C 304.789062 504.011719 304.023438 504.054688 303.257812 504.097656 C 302.765625 504.125 302.277344 504.15625 301.785156 504.167969 C 300.925781 504.207031 300.066406 504.21875 299.207031 504.226562 C 298.828125 504.230469 298.457031 504.242188 298.078125 504.242188 C 296.472656 504.238281 294.871094 504.1875 293.28125 504.097656 C 292.90625 504.078125 292.546875 504.054688 292.175781 504.027344 C 291.363281 503.976562 290.5625 503.882812 289.753906 503.808594 C 289.753906 503.8125 289.746094 503.820312 289.742188 503.832031 C 289.742188 503.832031 289.734375 503.832031 289.734375 503.832031 C 289.742188 503.820312 289.746094 503.8125 289.753906 503.808594 C 288.996094 503.730469 288.230469 503.6875 287.480469 503.59375 C 287.21875 503.5625 286.964844 503.523438 286.707031 503.484375 C 285.273438 503.296875 283.851562 503.074219 282.449219 502.816406 C 282.175781 502.765625 281.90625 502.71875 281.640625 502.671875 C 280.386719 502.421875 279.15625 502.125 277.921875 501.816406 C 277.921875 501.828125 277.917969 501.835938 277.910156 501.847656 C 277.652344 501.785156 277.40625 501.710938 277.152344 501.640625 C 276.804688 501.550781 276.464844 501.464844 276.121094 501.367188 C 274.636719 500.957031 273.160156 500.519531 271.71875 500.027344 C 271.554688 499.972656 271.402344 499.910156 271.238281 499.851562 C 269.890625 499.378906 268.570312 498.859375 267.269531 498.308594 C 266.984375 498.191406 266.699219 498.074219 266.421875 497.957031 C 265.058594 497.355469 263.730469 496.710938 262.429688 496.027344 C 262.136719 495.875 261.851562 495.71875 261.5625 495.5625 C 260.253906 494.847656 258.957031 494.101562 257.707031 493.292969 C 257.6875 493.273438 257.65625 493.261719 257.632812 493.242188 L 33.820312 348.03125 C 33.023438 347.511719 32.257812 346.984375 31.507812 346.4375 C 31.273438 346.269531 31.046875 346.089844 30.816406 345.921875 C 30.300781 345.535156 29.789062 345.148438 29.296875 344.75 C 29.054688 344.554688 28.808594 344.359375 28.574219 344.15625 C 28.074219 343.742188 27.589844 343.316406 27.109375 342.894531 C 26.925781 342.722656 26.730469 342.558594 26.550781 342.386719 C 25.90625 341.792969 25.28125 341.195312 24.6875 340.582031 C 24.582031 340.46875 24.484375 340.351562 24.378906 340.238281 C 23.890625 339.726562 23.417969 339.210938 22.957031 338.683594 C 22.773438 338.46875 22.597656 338.253906 22.417969 338.046875 C 22.039062 337.597656 21.679688 337.144531 21.324219 336.6875 C 21.15625 336.46875 20.984375 336.246094 20.820312 336.023438 C 20.433594 335.507812 20.070312 334.980469 19.707031 334.449219 C 19.601562 334.300781 19.492188 334.148438 19.390625 333.996094 C 18.945312 333.320312 18.519531 332.632812 18.121094 331.9375 C 18.019531 331.757812 17.925781 331.582031 17.832031 331.410156 C 17.535156 330.878906 17.242188 330.34375 16.972656 329.800781 C 16.851562 329.558594 16.738281 329.320312 16.625 329.078125 C 16.378906 328.574219 16.152344 328.066406 15.929688 327.554688 C 15.835938 327.328125 15.734375 327.09375 15.636719 326.867188 C 15.375 326.214844 15.125 325.558594 14.894531 324.902344 C 14.867188 324.820312 14.835938 324.738281 14.804688 324.65625 C 14.550781 323.910156 14.324219 323.15625 14.117188 322.398438 C 14.058594 322.191406 14.007812 321.976562 13.957031 321.769531 C 13.863281 321.40625 13.769531 321.054688 13.679688 320.695312 L 23.027344 361.675781 C 24.964844 370.175781 29.710938 378.101562 37.265625 384.601562 C 36.453125 386.289062 35.644531 387.984375 34.863281 389.671875 C 32.058594 395.71875 29.421875 401.742188 26.9375 407.726562 C 21.921875 419.816406 17.535156 431.777344 13.882812 443.539062 C 12.328125 448.539062 10.898438 453.496094 9.601562 458.421875 C 7.011719 468.261719 4.953125 477.949219 3.441406 487.425781 C 2.875 490.996094 2.394531 494.503906 1.988281 497.949219 C 1.703125 500.421875 1.476562 502.847656 1.273438 505.253906 C 0.90625 509.558594 0.667969 513.765625 0.566406 517.863281 C 0.496094 520.992188 0.496094 524.050781 0.578125 527.058594 C 0.578125 527.125 0.578125 527.195312 0.578125 527.257812 C 0.667969 530.3125 0.824219 533.300781 1.058594 536.226562 C 1.300781 539.152344 1.609375 542.015625 1.996094 544.816406 C 2.773438 550.414062 3.847656 555.753906 5.210938 560.835938 C 7.917969 570.945312 11.757812 580.019531 16.648438 588.058594 C 16.667969 588.085938 16.6875 588.105469 16.699219 588.136719 C 18.855469 591.65625 21.230469 594.949219 23.785156 598.0625 C 25.496094 600.160156 27.273438 602.195312 29.15625 604.109375 C 29.207031 604.160156 29.25 604.210938 29.296875 604.257812 C 30.886719 605.863281 32.535156 607.398438 34.242188 608.871094 L 241.523438 787.320312 L 241.515625 787.3125 C 241.511719 787.308594 241.503906 787.300781 241.492188 787.292969 C 240.910156 786.796875 240.347656 786.269531 239.777344 785.753906 C 239.261719 785.273438 238.753906 784.785156 238.25 784.292969 C 238.84375 784.867188 239.445312 785.441406 240.050781 786 C 240.328125 786.25 240.605469 786.5 240.886719 786.746094 C 249.035156 793.9375 258.800781 799.308594 269.992188 802.808594 C 292.351562 809.796875 320.402344 809.375 352.734375 801.292969 C 384.558594 793.34375 420.59375 777.960938 459.589844 754.863281 C 498.09375 732.054688 536.101562 703.726562 571.976562 672.019531 C 607.613281 640.53125 641.351562 605.527344 671.546875 569.042969 C 701.722656 532.59375 728.535156 494.453125 750.292969 456.632812 C 772.167969 418.613281 789.066406 380.691406 799.164062 344.890625 C 809.402344 308.667969 811.777344 277.828125 807.1875 253.0625 "/></g><path style=" stroke:none;fill-rule:nonzero;fill:#ffffff;fill-opacity:1;" d="M 775.886719 199.359375 L 775.902344 199.371094 Z M 775.886719 199.359375 "/><path style=" stroke:none;fill-rule:nonzero;fill:#ffffff;fill-opacity:1;" d="M 443.28125 625.3125 C 439.214844 638.535156 427.34375 650.570312 411.511719 657.523438 C 387.617188 668.058594 364.96875 663.054688 354.953125 652.664062 C 352.328125 649.953125 350.484375 646.855469 349.453125 643.460938 C 344.011719 625.671875 358.105469 604.28125 382.226562 593.703125 C 405.597656 583.566406 431.242188 587.679688 441.167969 603.503906 C 444.984375 609.570312 445.730469 617.320312 443.28125 625.3125 Z M 442.421875 594.054688 C 428.617188 579.753906 403.328125 577.09375 379.492188 587.425781 C 352.171875 599.410156 336.449219 624.359375 342.90625 645.460938 C 344.246094 649.890625 346.640625 653.921875 350.023438 657.421875 C 363.851562 671.75 390.273438 674.371094 414.265625 663.792969 C 431.890625 656.050781 445.183594 642.417969 449.820312 627.324219 C 452.867188 617.394531 451.855469 607.644531 446.964844 599.863281 C 445.664062 597.785156 444.132812 595.832031 442.421875 594.054688 "/><path style=" stroke:none;fill-rule:nonzero;fill:#ffffff;fill-opacity:1;" d="M 741.921875 362.292969 C 738.882812 405.433594 670.675781 511.730469 669.984375 512.800781 C 662.300781 520.789062 654.515625 524.1875 645.195312 526.558594 C 636.214844 528.945312 630.457031 524.269531 622.496094 517.800781 L 554.421875 462.261719 C 545.402344 454.957031 539.128906 449.863281 538.570312 441.644531 C 537.578125 432.203125 538.425781 424.363281 545.675781 414.027344 L 547.714844 411.054688 C 555.015625 404.773438 577.175781 383.300781 621.09375 322.4375 C 647.035156 286.484375 673.808594 286.675781 691.710938 293.160156 C 721.957031 304.117188 743.539062 339.324219 741.921875 362.292969 Z M 693.847656 287.269531 C 677.53125 281.359375 645.71875 277.59375 616.015625 318.773438 C 593.695312 349.707031 577.03125 370.359375 565.15625 383.953125 C 557.195312 387.925781 549.71875 394.542969 543.164062 403.667969 C 543.101562 403.746094 543.035156 403.8125 542.96875 403.902344 L 539.140625 409.46875 C 531.753906 420.011719 529.289062 429.535156 530.632812 442.332031 C 531.410156 453.863281 539.601562 460.5 549.082031 468.191406 L 617.472656 523.980469 C 625.761719 530.714844 634.335938 537.6875 647.199219 534.269531 C 660.632812 530.847656 671.953125 525.230469 683.378906 508.945312 C 684.957031 506.6875 686.511719 504.421875 688.046875 502.140625 C 688.054688 502.132812 688.058594 502.132812 688.066406 502.121094 C 690.308594 499.148438 693.613281 492.722656 694.796875 490.0625 C 696.835938 485.460938 698.378906 480.847656 699.421875 476.3125 C 719.902344 440.796875 746.21875 390.390625 748.164062 362.738281 C 749.976562 337.0625 727.125 299.332031 693.847656 287.269531 "/><path style=" stroke:none;fill-rule:nonzero;fill:#ffffff;fill-opacity:1;" d="M 49.113281 290.074219 L 334.898438 42.128906 C 346.175781 32.351562 362.675781 26.515625 379.054688 26.515625 C 389.675781 26.515625 399.417969 29.042969 406.480469 33.617188 L 630.292969 178.839844 C 632.898438 180.527344 635.839844 182.972656 637.863281 186.238281 C 639.164062 188.335938 640.09375 190.777344 640.289062 193.578125 C 640.800781 200.957031 636.390625 209.269531 628.1875 216.382812 L 342.402344 464.335938 C 331.128906 474.113281 314.613281 479.953125 298.234375 479.953125 C 287.625 479.953125 277.898438 477.4375 270.859375 472.867188 L 47.046875 327.652344 C 42.976562 325.007812 38.074219 320.527344 37.144531 313.980469 C 37.09375 313.617188 37.050781 313.25 37.015625 312.875 C 36.503906 305.5 40.910156 297.191406 49.113281 290.074219 Z M 41.050781 336.890625 L 264.867188 482.105469 C 273.671875 487.820312 285.527344 490.964844 298.242188 490.964844 C 317.191406 490.964844 336.398438 484.121094 349.617188 472.652344 L 635.40625 224.699219 C 646.25 215.296875 652.03125 203.675781 651.273438 192.804688 C 650.628906 183.566406 645.449219 175.539062 636.289062 169.601562 L 412.480469 24.378906 C 403.648438 18.652344 391.78125 15.5 379.054688 15.5 C 360.101562 15.5 340.898438 22.34375 327.683594 33.808594 L 41.894531 281.757812 C 31.058594 291.164062 25.277344 302.777344 26.035156 313.640625 C 26.671875 322.894531 31.875 330.929688 41.050781 336.890625 "/><path style=" stroke:none;fill-rule:nonzero;fill:#ffffff;fill-opacity:1;" d="M 187.445312 301.621094 C 192.207031 297.496094 192.148438 291.59375 187.339844 288.46875 L 135.128906 254.597656 C 130.304688 251.46875 122.519531 252.277344 117.761719 256.40625 L 65.714844 299.617188 C 62.433594 302.46875 61.441406 306.164062 62.730469 309.203125 C 63.3125 310.570312 64.34375 311.800781 65.835938 312.773438 L 118.046875 346.648438 C 122.855469 349.777344 130.640625 348.96875 135.40625 344.835938 L 172.710938 313.855469 L 187.445312 301.621094 "/><path style=" stroke:none;fill-rule:nonzero;fill:#ffffff;fill-opacity:1;" d="M 281.273438 344.835938 L 241.808594 319.226562 L 229.0625 310.960938 C 224.246094 307.832031 216.460938 308.640625 211.695312 312.769531 L 207.0625 316.625 L 159.652344 355.980469 C 154.894531 360.113281 154.953125 366.011719 159.773438 369.140625 L 211.984375 403.011719 C 216.792969 406.140625 224.582031 405.332031 229.339844 401.199219 L 281.378906 357.984375 C 286.144531 353.859375 286.082031 347.957031 281.273438 344.835938 "/><path style=" stroke:none;fill-rule:nonzero;fill:#ffffff;fill-opacity:1;" d="M 368.949219 401.199219 L 316.738281 367.320312 C 311.917969 364.195312 304.128906 365.007812 299.371094 369.132812 L 247.332031 412.34375 C 242.570312 416.476562 242.628906 422.375 247.449219 425.503906 L 299.65625 459.375 C 304.472656 462.496094 312.257812 461.6875 317.015625 457.5625 L 369.058594 414.347656 C 373.816406 410.214844 373.757812 404.320312 368.949219 401.199219 "/></g></svg>